<svg width="21" height="21" viewBox="0 0 21 21" fill="none" xmlns="http://www.w3.org/2000/svg">
<path d="M4.6 12H19V16.8H17.4V15.2H4.6V16.8H3V4H4.6V12ZM11 7.2H17.4C17.8243 7.2 18.2313 7.36857 18.5314 7.66863C18.8314 7.96869 19 8.37565 19 8.8V11.2H11V7.2ZM7.8 11.2C7.16348 11.2 6.55303 10.9471 6.10294 10.4971C5.65286 10.047 5.4 9.43652 5.4 8.8C5.4 8.16348 5.65286 7.55303 6.10294 7.10294C6.55303 6.65286 7.16348 6.4 7.8 6.4C8.43652 6.4 9.04697 6.65286 9.49706 7.10294C9.94714 7.55303 10.2 8.16348 10.2 8.8C10.2 9.43652 9.94714 10.047 9.49706 10.4971C9.04697 10.9471 8.43652 11.2 7.8 11.2Z" fill="#FF8027"/>
</svg>
