<svg width="16" height="16" viewBox="0 0 16 16" fill="none" xmlns="http://www.w3.org/2000/svg">
<path d="M15.8932 6.7439L14.2982 3.55265C14.2395 3.43519 14.1582 3.33046 14.0589 3.24443C13.9597 3.1584 13.8445 3.09276 13.7199 3.05127C13.5953 3.00977 13.4637 2.99322 13.3327 3.00258C13.2017 3.01193 13.0738 3.047 12.9564 3.10577L11.402 3.88265L8.12761 3.0164C8.04359 2.99453 7.95538 2.99453 7.87136 3.0164L4.59698 3.88265L3.04261 3.10577C2.92516 3.047 2.79728 3.01193 2.66628 3.00258C2.53528 2.99322 2.40372 3.00977 2.27911 3.05127C2.1545 3.09276 2.03929 3.1584 1.94005 3.24443C1.84081 3.33046 1.75949 3.43519 1.70073 3.55265L0.105734 6.74327C0.0469569 6.86072 0.0118908 6.9886 0.00253861 7.1196C-0.00681359 7.2506 0.00973129 7.38216 0.0512284 7.50677C0.0927256 7.63138 0.158362 7.74659 0.24439 7.84583C0.330417 7.94507 0.435151 8.02639 0.552609 8.08515L2.24011 8.92952L5.70823 11.4064C5.75934 11.4428 5.81678 11.4693 5.87761 11.4845L9.87761 12.4845C9.96138 12.5055 10.0492 12.5045 10.1324 12.4815C10.2156 12.4585 10.2915 12.4143 10.3526 12.3533L12.8526 9.85327L13.7951 8.91077L15.4464 8.08515C15.6834 7.96648 15.8637 7.75854 15.9474 7.50703C16.0312 7.25552 16.0117 6.98103 15.8932 6.7439ZM12.4626 8.82952L10.312 7.10702C10.2156 7.02986 10.0942 6.99107 9.97093 6.99811C9.84769 7.00515 9.73142 7.05752 9.64449 7.14515C8.53136 8.2664 7.29074 8.12452 6.49949 7.62452L9.20199 4.99952H11.1901L12.8907 8.40015L12.4626 8.82952ZM9.84573 11.4458L6.21324 10.5376L3.13823 8.3414L4.88824 4.8414L7.99949 4.01702L8.61199 4.1789L5.79949 6.9089L5.79449 6.91452C5.68861 7.02039 5.60787 7.14869 5.5582 7.28993C5.50854 7.43118 5.49123 7.58178 5.50755 7.73061C5.52386 7.87944 5.57339 8.02271 5.65248 8.14985C5.73156 8.27698 5.83819 8.38473 5.96449 8.46515C7.24949 9.28577 8.80011 9.15265 10.0214 8.15265L11.7495 9.54077L9.84573 11.4458ZM8.23824 13.6208C8.21122 13.7288 8.1489 13.8248 8.06115 13.8934C7.9734 13.962 7.86525 13.9994 7.75386 13.9995C7.71278 13.9995 7.67185 13.9944 7.63199 13.9845L5.02511 13.3326C4.9642 13.3176 4.90671 13.2911 4.85573 13.2545L3.20886 12.0783C3.1076 11.9988 3.04091 11.8833 3.02267 11.7558C3.00444 11.6284 3.03607 11.4988 3.11098 11.3941C3.18589 11.2894 3.2983 11.2176 3.4248 11.1937C3.55131 11.1698 3.68216 11.1956 3.79011 11.2658L5.35949 12.387L7.87449 13.0145C8.00311 13.0467 8.11368 13.1286 8.18189 13.2423C8.25011 13.356 8.27037 13.4921 8.23824 13.6208Z" fill="#7744DD"/>
</svg>
