<svg width="16" height="16" viewBox="0 0 16 16" fill="none" xmlns="http://www.w3.org/2000/svg">
<path d="M10.3307 4.99935C10.3307 6.28802 9.28606 7.33268 7.9974 7.33268C6.70873 7.33268 5.66406 6.28802 5.66406 4.99935C5.66406 3.71068 6.70873 2.66602 7.9974 2.66602C9.28606 2.66602 10.3307 3.71068 10.3307 4.99935Z" fill="black"/>
<path d="M12 10.9993C12 12.288 10.2091 13.3327 8 13.3327C5.79086 13.3327 4 12.288 4 10.9993C4 9.71068 5.79086 8.66602 8 8.66602C10.2091 8.66602 12 9.71068 12 10.9993Z" fill="black"/>
<path d="M4.74642 3.33398C4.86472 3.33398 4.98022 3.34559 5.09175 3.36769C4.82004 3.85029 4.66505 4.40737 4.66505 5.00065C4.66505 5.57948 4.81259 6.12386 5.07211 6.59822C4.96668 6.61787 4.8578 6.62816 4.74642 6.62816C3.80347 6.62816 3.03906 5.89073 3.03906 4.98107C3.03906 4.07141 3.80347 3.33398 4.74642 3.33398Z" fill="black"/>
<path d="M3.63416 12.6576C3.25555 12.205 3.0026 11.6496 3.0026 11.0003C3.0026 10.3708 3.24032 9.82963 3.59979 9.38477C2.33 9.4833 1.33594 10.1778 1.33594 11.0199C1.33594 11.8699 2.34747 12.5695 3.63416 12.6576Z" fill="black"/>
<path d="M11.3329 5.00065C11.3329 5.57948 11.1854 6.12386 10.9258 6.59822C11.0313 6.61787 11.1402 6.62816 11.2516 6.62816C12.1945 6.62816 12.9589 5.89073 12.9589 4.98107C12.9589 4.07141 12.1945 3.33398 11.2516 3.33398C11.1332 3.33398 11.0178 3.34559 10.9062 3.36769C11.1779 3.85029 11.3329 4.40737 11.3329 5.00065Z" fill="black"/>
<path d="M12.3672 12.6576C13.6539 12.5695 14.6654 11.8699 14.6654 11.0199C14.6654 10.1778 13.6713 9.4833 12.4015 9.38477C12.761 9.82963 12.9987 10.3708 12.9987 11.0003C12.9987 11.6496 12.7458 12.205 12.3672 12.6576Z" fill="black"/>
</svg>
