<svg width="21" height="21" viewBox="0 0 21 21" fill="none" xmlns="http://www.w3.org/2000/svg">
<path d="M6 7.00001L4 7.33334C4.54333 4.82867 6.12133 4.00234 7.66667 4.00001C8.66567 3.99834 9.65067 4.34201 10.3333 4.66667C11.016 4.34201 12 4.00001 13 4.00001C14.537 4.00001 16.1233 4.82867 16.6667 7.33334L14.6667 7.00001C14.853 7.70001 15.2627 8.93067 14.6667 10C13.6733 9.10901 11.3767 7.76367 10.3333 7.00001C9.29 7.76367 6.99333 9.10901 6 10C5.404 8.93101 5.81367 7.70001 6 7.00001Z" fill="#FF8027" stroke="#FF8027" stroke-width="1.33333" stroke-linecap="round" stroke-linejoin="round"/>
<path d="M10.3334 7C10.0817 8.29633 9.72969 11.511 10.3334 14" stroke="#FF8027" stroke-width="1.33333" stroke-linecap="round" stroke-linejoin="round"/>
<path d="M6.33203 16H14.332C12.7364 14.4717 11.9987 14.0017 10.332 14C8.66536 13.9983 6.9627 15.1273 6.33203 16Z" fill="#FF8027" stroke="#FF8027" stroke-width="1.33333" stroke-linecap="round" stroke-linejoin="round"/>
</svg>
