<svg width="66" height="66" viewBox="0 0 66 66" fill="none" xmlns="http://www.w3.org/2000/svg">
<circle cx="33" cy="33" r="33" fill="#D9D9D9"/>
<rect width="66" height="66" rx="33" fill="white"/>
<g clip-path="url(#clip0_1397_25126)">
<path d="M23.6581 34.543C20.5809 35.3987 17.6148 36.7127 14.687 38.5498C14.6795 38.5546 14.6731 38.561 14.668 38.5684C14.663 38.5757 14.6595 38.5841 14.6577 38.5928C14.6558 38.6016 14.6558 38.6106 14.6575 38.6194C14.6591 38.6282 14.6625 38.6365 14.6675 38.644C14.687 38.6754 14.732 38.6822 14.7634 38.6618C17.3415 37.3613 20.4051 36.2942 23.6581 35.5633V34.543Z" fill="#B01842"/>
<path d="M37.1252 38.6078H38.3892L33.6431 28H33.3256L28.7653 38.6137H29.5743L33.1889 29.3506L37.1252 38.6078ZM24.9776 32.6061V36.1468H23.9215V32.7614L20.9895 28.2182H22.1431L24.5769 32.3599L27.0972 28.2182H27.8816L24.9776 32.6061ZM15.5761 36.1468V32.1519H11.0396V36.1468H10.0039V28.2122H11.0396V31.6154H15.5761V28.2122H16.6126V36.1468H15.5761ZM45.8281 28.7453V28.2114H39.5047V28.7453H42.1515V36.1443H43.1948V28.7453H45.8281ZM54.9987 28.7453V28.2114H49.1906V28.7453H51.5794V36.1443H52.6227V28.7453H54.9987Z" fill="#1A3B73"/>
<path d="M43.4581 35.7817C46.1839 36.4939 48.7162 37.4566 50.9386 38.5788C50.9531 38.5885 50.9709 38.5921 50.9881 38.5888C51.0053 38.5855 51.0204 38.5755 51.0302 38.561C51.0349 38.5539 51.0381 38.5459 51.0397 38.5375C51.0413 38.5292 51.0411 38.5206 51.0393 38.5123C51.0375 38.504 51.034 38.4961 51.0291 38.4892C51.0242 38.4822 51.0179 38.4763 51.0107 38.4718C48.5031 36.8988 46.0311 35.6943 43.4581 34.8428V35.7817ZM36.8945 34.6297C38.5741 34.7852 40.2425 35.0444 41.8902 35.4056V34.3717C40.076 33.8847 38.2211 33.5642 36.3486 33.4141L36.8945 34.6297ZM30.7298 33.3708C28.8503 33.4897 27.0235 33.7443 25.2383 34.1459V35.2358C26.8826 34.9261 28.5427 34.7074 30.2111 34.5805L30.7298 33.3708ZM31.4573 34.5049C32.0744 34.4769 32.689 34.4625 33.3011 34.4625C33.8996 34.4625 34.4963 34.4769 35.0889 34.5049L34.5931 33.3131C34.16 33.298 33.7268 33.2907 33.2934 33.291C32.8342 33.291 32.3792 33.2987 31.9267 33.3131L31.4573 34.5049Z" fill="#B01842"/>
</g>
<defs>
<clipPath id="clip0_1397_25126">
<rect width="45" height="10.674" fill="white" transform="translate(10 28)"/>
</clipPath>
</defs>
</svg>
