<svg width="18" height="18" viewBox="0 0 18 18" fill="none" xmlns="http://www.w3.org/2000/svg">
<path fill-rule="evenodd" clip-rule="evenodd" d="M7.1943 2.40216C7.01166 2.55781 6.92033 2.63564 6.8228 2.70101C6.59922 2.85086 6.34813 2.95486 6.08408 3.007C5.96888 3.02974 5.84927 3.03928 5.61006 3.05837C5.00903 3.10634 4.7085 3.13032 4.45778 3.21888C3.87788 3.4237 3.42175 3.87984 3.21692 4.45974C3.12836 4.71046 3.10439 5.01098 3.05642 5.61202C3.03733 5.85123 3.02779 5.97084 3.00504 6.08603C2.95291 6.35008 2.84891 6.60118 2.69906 6.82475C2.63369 6.92229 2.55586 7.01361 2.4002 7.19625C2.00912 7.65518 1.81358 7.8846 1.69892 8.12453C1.43369 8.67945 1.43369 9.32445 1.69892 9.87938C1.81358 10.1193 2.00912 10.3487 2.4002 10.8077C2.55584 10.9903 2.63369 11.0816 2.69906 11.1791C2.84891 11.4027 2.95291 11.6538 3.00504 11.9179C3.02779 12.0331 3.03733 12.1527 3.05642 12.3919C3.10439 12.9929 3.12836 13.2935 3.21692 13.5442C3.42175 14.1241 3.87788 14.5802 4.45778 14.7851C4.7085 14.8736 5.00903 14.8976 5.61006 14.9456C5.84927 14.9646 5.96888 14.9742 6.08408 14.9969C6.34813 15.0491 6.59922 15.1531 6.8228 15.3029C6.92033 15.3683 7.01165 15.4461 7.1943 15.6017C7.65323 15.9929 7.88265 16.1884 8.12258 16.3031C8.6775 16.5683 9.3225 16.5683 9.87743 16.3031C10.1174 16.1884 10.3468 15.9929 10.8057 15.6017C10.9883 15.4461 11.0797 15.3683 11.1772 15.3029C11.4008 15.1531 11.6519 15.0491 11.9159 14.9969C12.0311 14.9742 12.1508 14.9646 12.3899 14.9456C12.991 14.8976 13.2915 14.8736 13.5422 14.7851C14.1221 14.5802 14.5783 14.1241 14.7831 13.5442C14.8716 13.2935 14.8956 12.9929 14.9436 12.3919C14.9627 12.1527 14.9723 12.0331 14.995 11.9179C15.0471 11.6538 15.1511 11.4027 15.301 11.1791C15.3663 11.0816 15.4442 10.9903 15.5998 10.8077C15.9909 10.3487 16.1864 10.1193 16.3011 9.87938C16.5663 9.32445 16.5663 8.67945 16.3011 8.12453C16.1864 7.8846 15.9909 7.65518 15.5998 7.19625C15.4442 7.01361 15.3663 6.92229 15.301 6.82475C15.1511 6.60118 15.0471 6.35008 14.995 6.08603C14.9723 5.97084 14.9627 5.85123 14.9436 5.61202C14.8956 5.01098 14.8716 4.71046 14.7831 4.45974C14.5783 3.87984 14.1221 3.4237 13.5422 3.21888C13.2915 3.13032 12.991 3.10634 12.3899 3.05837C12.1508 3.03928 12.0311 3.02974 11.9159 3.007C11.6519 2.95486 11.4008 2.85086 11.1772 2.70101C11.0797 2.63564 10.9883 2.55781 10.8057 2.40216C10.3468 2.01108 10.1174 1.81554 9.87743 1.70087C9.3225 1.43565 8.6775 1.43565 8.12258 1.70087C7.88265 1.81553 7.65323 2.01108 7.1943 2.40216ZM11.8732 6.12915C12.1115 6.36752 12.1115 6.754 11.8732 6.99237L6.99002 11.8755C6.75165 12.1139 6.36517 12.1139 6.1268 11.8755C5.88842 11.6372 5.88842 11.2507 6.1268 11.0123L11.0099 6.12915C11.2484 5.89078 11.6348 5.89078 11.8732 6.12915ZM11.8485 11.037C11.8485 11.4865 11.4842 11.8508 11.0347 11.8508C10.5851 11.8508 10.2208 11.4865 10.2208 11.037C10.2208 10.5875 10.5851 10.2231 11.0347 10.2231C11.4842 10.2231 11.8485 10.5875 11.8485 11.037ZM6.96534 7.78156C7.41482 7.78156 7.77923 7.41718 7.77923 6.96769C7.77923 6.51821 7.41482 6.15383 6.96534 6.15383C6.51586 6.15383 6.15148 6.51821 6.15148 6.96769C6.15148 7.41718 6.51586 7.78156 6.96534 7.78156Z" fill="#7744DD"/>
</svg>
