<svg width="21" height="21" viewBox="0 0 21 21" fill="none" xmlns="http://www.w3.org/2000/svg">
<path fill-rule="evenodd" clip-rule="evenodd" d="M11.4509 18.7142L11.9252 17.9128C12.293 17.2912 12.4771 16.9804 12.7725 16.8086C13.068 16.6367 13.44 16.6303 14.1841 16.6176C15.2826 16.5986 15.9715 16.5313 16.5492 16.292C17.6213 15.8479 18.4729 14.9963 18.917 13.9242C19.25 13.1203 19.25 12.101 19.25 10.0625V9.1875C19.25 6.32325 19.25 4.89112 18.6053 3.83907C18.2445 3.25039 17.7496 2.75544 17.1609 2.3947C16.1088 1.75 14.6767 1.75 11.8125 1.75H9.1875C6.32325 1.75 4.89112 1.75 3.83907 2.3947C3.25039 2.75544 2.75544 3.25039 2.3947 3.83907C1.75 4.89112 1.75 6.32325 1.75 9.1875V10.0625C1.75 12.101 1.75 13.1203 2.08302 13.9242C2.52706 14.9963 3.37876 15.8479 4.45076 16.292C5.02853 16.5313 5.71744 16.5986 6.81588 16.6176H6.81591C7.55994 16.6303 7.93196 16.6367 8.22744 16.8086C8.52293 16.9805 8.70689 17.2912 9.0748 17.9128L9.54914 18.7142C9.97194 19.4285 11.0281 19.4285 11.4509 18.7142ZM9.5342 5.53061C9.38664 5.15646 8.85712 5.15646 8.70956 5.53061L8.25227 6.69007C8.20722 6.8043 8.1168 6.89472 8.00257 6.93977L6.84311 7.39706C6.46896 7.54462 6.46896 8.07414 6.84311 8.2217L8.00257 8.67898C8.1168 8.72402 8.20722 8.81447 8.25227 8.92869L8.70956 10.0881C8.85712 10.4623 9.38664 10.4623 9.5342 10.0881L9.99148 8.92869C10.0365 8.81447 10.127 8.72402 10.2412 8.67898L11.4006 8.2217C11.7748 8.07414 11.7748 7.54462 11.4006 7.39706L10.2412 6.93977C10.127 6.89472 10.0365 6.8043 9.99148 6.69007L9.5342 5.53061ZM12.8922 9.73545C12.8111 9.52987 12.5201 9.52987 12.439 9.73545L12.0844 10.6347C12.0597 10.6975 12.01 10.7472 11.9472 10.7719L11.0479 11.1265C10.8424 11.2076 10.8424 11.4986 11.0479 11.5797L11.9472 11.9343C12.01 11.9591 12.0597 12.0088 12.0844 12.0716L12.439 12.9708C12.5201 13.1764 12.8111 13.1764 12.8922 12.9708L13.2468 12.0716C13.2716 12.0088 13.3213 11.9591 13.3841 11.9343L14.2833 11.5797C14.4889 11.4986 14.4889 11.2076 14.2833 11.1265L13.3841 10.7719C13.3213 10.7472 13.2716 10.6975 13.2468 10.6347L12.8922 9.73545Z" fill="#FF8027"/>
</svg>
