<svg width="11" height="9" viewBox="0 0 11 9" fill="none" xmlns="http://www.w3.org/2000/svg">
<g clip-path="url(#clip0_1397_25062)">
<path d="M2.50305 0.638031C2.63716 0.77241 2.63695 0.990059 2.50257 1.12417C1.7332 1.892 1.25781 2.95267 1.25781 4.125C1.25781 5.31107 1.74439 6.38284 2.5297 7.1527C2.66527 7.28562 2.66743 7.50324 2.53453 7.63881C2.40163 7.77439 2.18399 7.77654 2.04842 7.64362C1.13665 6.74983 0.570312 5.50325 0.570312 4.125C0.570312 2.76275 1.12362 1.52907 2.01692 0.63755C2.15129 0.503442 2.36895 0.503657 2.50305 0.638031Z" fill="white"/>
<path d="M8.53054 0.670545C8.66612 0.537642 8.88373 0.539805 9.01665 0.675376C9.88753 1.56374 10.4251 2.78161 10.4251 4.12433C10.4251 5.48306 9.8747 6.71387 8.98548 7.60483C8.85137 7.73921 8.63371 7.73944 8.49937 7.60533C8.36499 7.47122 8.36476 7.25356 8.49887 7.11918C9.2647 6.35183 9.73761 5.29363 9.73761 4.12433C9.73761 2.96875 9.2757 1.92172 8.52573 1.15666C8.39281 1.02109 8.39497 0.803448 8.53054 0.670545Z" fill="white"/>
<path d="M3.8084 2.05614C3.93812 2.19476 3.9309 2.41229 3.79229 2.54201C3.35737 2.949 3.09375 3.50571 3.09375 4.11621C3.09375 4.73377 3.36357 5.29642 3.80763 5.70461C3.9474 5.83308 3.95655 6.05056 3.82807 6.1903C3.6996 6.3301 3.48214 6.33922 3.34237 6.21075C2.76818 5.68298 2.40625 4.94125 2.40625 4.11621C2.40625 3.3007 2.75984 2.56659 3.32253 2.04003C3.46115 1.91031 3.67868 1.91752 3.8084 2.05614Z" fill="white"/>
<path d="M7.21431 2.07489C7.34553 1.9377 7.5631 1.93287 7.70032 2.06409C8.24904 2.58894 8.59256 3.31376 8.59256 4.11754C8.59256 4.93085 8.24079 5.66331 7.68066 6.18957C7.54234 6.31956 7.32477 6.31277 7.19478 6.1744C7.0648 6.03608 7.07158 5.81851 7.20991 5.68852C7.6428 5.2818 7.90506 4.72643 7.90506 4.11754C7.90506 3.5157 7.6489 2.96629 7.22508 2.56091C7.0879 2.42968 7.08309 2.21209 7.21431 2.07489Z" fill="white"/>
<path d="M5.5026 5.04036C6.00888 5.04036 6.41927 4.62993 6.41927 4.1237C6.41927 3.61742 6.00888 3.20703 5.5026 3.20703C4.99633 3.20703 4.58594 3.61742 4.58594 4.1237C4.58594 4.62993 4.99633 5.04036 5.5026 5.04036Z" fill="white"/>
</g>
<defs>
<clipPath id="clip0_1397_25062">
<rect width="11" height="8.25" fill="white"/>
</clipPath>
</defs>
</svg>
