<svg width="15" height="15" viewBox="0 0 15 15" fill="none" xmlns="http://www.w3.org/2000/svg">
<path d="M9.51199 6.72862C8.9186 5.99287 8.62185 5.625 8.27251 5.67477C7.92325 5.72453 7.75264 6.15898 7.41144 7.02788L7.32315 7.25265C7.22618 7.49957 7.1777 7.62302 7.08599 7.71298C6.99433 7.803 6.86977 7.84924 6.62065 7.94186L6.39392 8.02613C5.51733 8.35192 5.07906 8.51479 5.02333 8.8624C4.9676 9.21001 5.33133 9.51216 6.05879 10.1163L6.24699 10.2727C6.45371 10.4444 6.5571 10.5303 6.61572 10.6463C6.6744 10.7624 6.68173 10.8955 6.69643 11.1618L6.70978 11.4043C6.76144 12.3414 6.7873 12.8099 7.10216 12.975C7.41708 13.14 7.81245 12.8923 8.60325 12.3968L8.80783 12.2687C9.03254 12.1279 9.14492 12.0575 9.27286 12.0392C9.40087 12.021 9.52995 12.057 9.78806 12.129L10.0231 12.1946C10.9316 12.4479 11.3859 12.5746 11.6362 12.329C11.8865 12.0835 11.7672 11.6282 11.5285 10.7178L11.4667 10.4822C11.3988 10.2235 11.365 10.0941 11.3854 9.96679C11.4058 9.83946 11.4782 9.72858 11.6231 9.50677L11.755 9.30489C12.2648 8.52433 12.5197 8.1341 12.3595 7.81726C12.1993 7.50041 11.7302 7.46678 10.7919 7.39959L10.5491 7.38214C10.2824 7.36304 10.1492 7.35353 10.0338 7.29302C9.91845 7.23257 9.83412 7.12805 9.66548 6.91895L9.51199 6.72862Z" fill="#FFC825"/>
<path d="M9.34184 3.33413L9.44865 3.65664C9.56604 4.01087 9.6247 4.18799 9.74259 4.31977C9.86048 4.45155 10.0242 4.52306 10.3516 4.66608L10.6498 4.79631C11.8022 5.29962 12.3783 5.55129 12.4359 6.04612C12.4599 6.25209 12.3874 6.44343 12.2226 6.6558C12.1684 6.64011 12.1162 6.62721 12.0671 6.61628C11.7451 6.54497 11.3344 6.51562 10.9158 6.48576L10.6152 6.46423C10.5574 6.46009 10.5125 6.45685 10.474 6.45366C10.449 6.42336 10.4202 6.38765 10.3831 6.34165L10.1933 6.10629C9.92839 5.77774 9.66929 5.45629 9.42699 5.23204C9.16861 4.99289 8.73517 4.67929 8.14283 4.76367C7.54427 4.84895 7.21824 5.27772 7.04108 5.58473C6.87691 5.86917 6.72707 6.25106 6.57531 6.63772L6.46567 6.91711C6.44709 6.96428 6.43223 7.00212 6.41919 7.03458C6.38616 7.04715 6.34781 7.06148 6.29988 7.07926L6.0182 7.18396C5.62801 7.32886 5.24305 7.47183 4.95549 7.63068C4.64605 7.80157 4.20956 8.11968 4.11367 8.71778C4.01869 9.31019 4.32743 9.74927 4.56238 10.0106C4.73748 10.2054 4.97371 10.4116 5.22608 10.6233C4.25799 10.8679 3.74376 10.9565 3.45796 10.6369C3.13618 10.2772 3.31707 9.63842 3.67885 8.36081L3.77245 8.03033C3.87526 7.66725 3.92667 7.48572 3.90558 7.30445C3.88448 7.12318 3.79328 6.96269 3.61088 6.64177L3.44483 6.34952C2.80295 5.21999 2.48202 4.65524 2.71064 4.21431C2.93926 3.77339 3.56604 3.74831 4.81959 3.69816L5.14389 3.68518C5.50011 3.67093 5.67822 3.6638 5.83483 3.58372C5.99143 3.50365 6.10879 3.35969 6.34352 3.07177L6.55721 2.80963C7.38322 1.79642 7.79626 1.28981 8.25933 1.37704C8.72241 1.46426 8.92892 2.08755 9.34184 3.33413Z" fill="#FFC825"/>
</svg>
