<svg width="21" height="21" viewBox="0 0 21 21" fill="none" xmlns="http://www.w3.org/2000/svg">
<path d="M5.25004 5.25C5.25004 4.76676 5.6418 4.375 6.12504 4.375C6.6083 4.375 7.00004 4.76676 7.00004 5.25V10.5224C7.55294 10.5747 8.13727 10.691 8.75009 10.8861V9.625H14.0001V12.6744C14.7001 12.6646 15.2949 12.5236 15.7501 12.3633V5.25C15.7501 3.80026 14.5748 2.625 13.1251 2.625C11.6753 2.625 10.5001 3.80026 10.5001 5.25C10.5001 5.73324 10.8918 6.125 11.3751 6.125C11.8583 6.125 12.2501 5.73324 12.2501 5.25C12.2501 4.76676 12.6418 4.375 13.1251 4.375C13.6083 4.375 14.0001 4.76676 14.0001 5.25V7.875H8.75009V5.25C8.75009 3.80026 7.5748 2.625 6.12504 2.625C4.6753 2.625 3.50004 3.80026 3.50004 5.25C3.50004 5.73324 3.8918 6.125 4.37504 6.125C4.8583 6.125 5.25004 5.73324 5.25004 5.25ZM5.76832 13.1468C4.87185 13.2575 4.281 13.6258 4.03012 13.8169C3.64564 14.1095 3.09663 14.0352 2.80388 13.6507C2.51113 13.2662 2.58549 12.7172 2.96998 12.4245C3.40055 12.0966 4.27622 11.5677 5.55384 11.4099C6.84399 11.2507 8.47264 11.479 10.3772 12.5618C13.6923 14.4463 16.3589 13.1332 17.0543 12.7215C17.4701 12.4754 18.0068 12.6129 18.2529 13.0288C18.4992 13.4446 18.3617 13.9812 17.9458 14.2274C17.0037 14.7852 13.6161 16.416 9.5123 14.0831C7.90522 13.1695 6.65224 13.0376 5.76832 13.1468ZM4.03012 17.3169C4.281 17.1258 4.87185 16.7575 5.76832 16.6468C6.65224 16.5376 7.90522 16.6695 9.5123 17.5831C13.6161 19.916 17.0037 18.2852 17.9458 17.7274C18.3617 17.4812 18.4992 16.9445 18.2529 16.5287C18.0068 16.1129 17.4701 15.9754 17.0543 16.2215C16.3589 16.6332 13.6923 17.9463 10.3772 16.0618C8.47264 14.979 6.84399 14.7507 5.55384 14.9099C4.27622 15.0677 3.40055 15.5966 2.96998 15.9245C2.58549 16.2172 2.51113 16.7662 2.80388 17.1507C3.09663 17.5352 3.64564 17.6096 4.03012 17.3169Z" fill="#FF8027"/>
</svg>
