<svg width="21" height="21" viewBox="0 0 21 21" fill="none" xmlns="http://www.w3.org/2000/svg">
<path d="M8.7365 17.542L6.90775 14.0892L3.4375 12.243L4.38513 11.3006L7.40563 11.8142L10.0744 9.1455L3.51013 6.34375L4.72462 5.13625L12.709 6.50563L15.439 3.759C15.684 3.51342 15.9844 3.39062 16.3403 3.39062C16.6961 3.39062 16.9965 3.51342 17.2415 3.759C17.4877 4.00458 17.6108 4.30442 17.6108 4.6585C17.6108 5.01258 17.488 5.31242 17.2424 5.558L14.4905 8.29238L15.8608 16.2724L14.641 17.4921L11.8506 10.9279L9.18188 13.5966L9.68325 16.5952L8.7365 17.542Z" fill="#FF8027"/>
</svg>
