<svg width="28" height="24" viewBox="0 0 28 24" fill="none" xmlns="http://www.w3.org/2000/svg">
<g clip-path="url(#clip0_1397_25090)">
<path d="M22.128 3.13868L20.588 2.29724L21.3572 1.87537L22.128 3.13868ZM22.5837 1.20615V2.88603L21.8167 1.62724L22.5837 1.20615ZM22.0558 3.45899L22.9153 2.98979V0.28125L19.5781 2.10548" fill="#8D7249"/>
<path d="M19.9923 5.45631V4.61487H21.5315L19.9923 5.45631ZM19.9923 3.27415L21.5293 4.11484H19.9923V3.27415ZM21.7902 3.89527L19.3125 2.54102V6.18873L21.7902 4.83522" fill="#8D7249"/>
<path d="M25.0026 6.8509L24.2348 5.59136L25.7704 6.4328L25.0026 6.8509ZM23.7739 7.52465V5.84027L24.5439 7.1028L23.7739 7.52465ZM23.4453 5.73876V8.44652L26.7832 6.62154L24.3048 5.26953" fill="#8D7249"/>
<path d="M26.3675 4.11367H24.8305L26.3675 3.27298V4.11367ZM26.3675 5.45514L24.8267 4.61373H26.3675V5.45514ZM24.5703 3.89484V4.83402L27.048 6.18756V2.53906" fill="#8D7249"/>
<path d="M25.0026 1.87612L25.7726 2.29874L24.2326 3.13943L25.0026 1.87612ZM23.7747 1.2054L24.5439 1.62799L23.7747 2.88974V1.2054ZM26.784 2.10623L23.4453 0.28125V2.99054L24.3048 3.45973" fill="#8D7249"/>
<path d="M21.3565 6.85165L20.5887 6.4328L22.1272 5.59211L21.3565 6.85165ZM22.5837 7.52312L21.8159 7.1028L22.5837 5.84326V7.52312ZM19.5781 6.62307L22.9145 8.44727V5.73876L22.0558 5.26953" fill="#8D7249"/>
<path d="M4.57267 15.8782C4.57267 17.1821 4.57268 18.301 4.49748 18.8988C4.45161 19.3086 4.36138 19.6206 4.05684 19.6778C3.92148 19.7064 3.74027 19.7343 3.51243 19.7343C3.33046 19.7343 3.2703 19.7771 3.2703 19.8486C3.2703 19.9455 3.37632 19.9914 3.57258 19.9914C4.17865 19.9914 5.13363 19.9485 5.48178 19.9485C5.90588 19.9485 6.86088 19.9914 7.86098 19.9914C8.02715 19.9914 8.14747 19.9455 8.14747 19.8486C8.14747 19.7771 8.07226 19.7343 7.90609 19.7343C7.67824 19.7343 7.34513 19.7066 7.13308 19.6778C6.67815 19.6207 6.58866 19.3086 6.54279 18.9108C6.4661 18.301 6.4661 17.1821 6.4661 15.8782V10.0656L8.37607 10.1078C9.72432 10.1372 10.1334 10.5334 10.1627 10.9019L10.1778 11.0575C10.1936 11.2702 10.2245 11.3402 10.3448 11.3402C10.4365 11.3402 10.4666 11.2567 10.4816 11.1154C10.4816 10.7462 10.5275 9.76713 10.5275 9.47085C10.5275 9.25813 10.5124 9.1716 10.4057 9.1716C10.2854 9.1716 9.92144 9.31441 8.95217 9.31441H2.95159C2.45229 9.31441 1.8763 9.28499 1.43641 9.24364C1.05968 9.21422 0.906269 9.07227 0.785203 9.07227C0.694976 9.07227 0.648348 9.15646 0.603245 9.34222C0.573169 9.45583 0.285156 10.7461 0.285156 10.9724C0.285156 11.128 0.315979 11.1988 0.421255 11.1988C0.512249 11.1988 0.558106 11.1423 0.588203 11.0289C0.618278 10.9161 0.694967 10.7462 0.84687 10.5334C1.07396 10.2205 1.43641 10.1498 2.31619 10.122L4.5728 10.0656" fill="#8D7249"/>
<path d="M13.0419 15.5858C12.9817 15.5858 12.9682 15.5436 12.9817 15.4858L14.342 11.999C14.3563 11.9425 14.3879 11.8711 14.4308 11.8711C14.4751 11.8711 14.4909 11.9425 14.5052 11.999L15.8347 15.4994C15.8496 15.5437 15.8347 15.5859 15.7618 15.5859L13.0419 15.5858ZM16.0422 16.2949C16.1159 16.2949 16.1603 16.322 16.1888 16.3927L17.3717 19.3998C17.446 19.569 17.3424 19.6976 17.2393 19.7261C17.0911 19.7389 17.0317 19.7683 17.0317 19.8532C17.0317 19.9525 17.2099 19.9525 17.4753 19.9697C18.6581 19.9968 19.7372 19.9968 20.2696 19.9968C20.817 19.9968 20.9501 19.9698 20.9501 19.8532C20.9501 19.7532 20.8763 19.7389 20.7576 19.7389C20.5794 19.7389 20.3583 19.7261 20.1373 19.6824C19.8259 19.6117 19.3981 19.4132 18.8356 18.1364C17.8904 15.9828 15.5248 10.1981 15.1691 9.41752C15.0225 9.09193 14.9337 8.96484 14.7999 8.96484C14.6518 8.96484 14.5645 9.12046 14.3878 9.53184L10.6769 18.4342C10.3792 19.1448 10.0994 19.6245 9.41666 19.7103C9.2986 19.7252 9.09181 19.7388 8.95872 19.7388C8.84065 19.7388 8.78125 19.7682 8.78125 19.8531C8.78125 19.9697 8.87073 19.9967 9.06172 19.9967C9.83398 19.9967 10.6469 19.9554 10.81 19.9554C11.268 19.9554 11.9034 19.9967 12.3763 19.9967C12.5395 19.9967 12.6275 19.9697 12.6275 19.8531C12.6275 19.768 12.5816 19.7388 12.4049 19.7388H12.1838C11.7259 19.7388 11.5928 19.5538 11.5928 19.2997C11.5928 19.1298 11.6665 18.7899 11.8146 18.4342L12.6117 16.4077C12.6418 16.322 12.6719 16.2949 12.7455 16.2949" fill="#8D7249"/>
<path d="M22.4525 17.5197C22.4525 20.3019 22.4674 21.7178 21.3667 22.8104C21.0757 23.0947 20.8591 23.2488 20.6696 23.3481C20.4245 23.4766 20.3516 23.5337 20.3516 23.6045C20.3516 23.6759 20.4102 23.7173 20.4682 23.7173C20.5404 23.7173 20.6547 23.6896 20.7584 23.6331C21.0614 23.4917 21.2938 23.3767 21.4826 23.2639C22.8729 22.4285 23.6399 21.4494 23.9429 20.5846C24.2355 19.7891 24.2926 18.88 24.2926 18.0724C24.2926 17.364 24.2483 16.6843 24.2483 16.0722V13.4509C24.2483 11.2965 24.2483 10.8995 24.2768 10.4461C24.3069 9.94827 24.4211 9.70765 24.8137 9.63848C24.9883 9.60907 25.0747 9.59477 25.2348 9.59477C25.4085 9.59477 25.495 9.56621 25.495 9.46773C25.495 9.36925 25.3935 9.33984 25.1897 9.33984C24.625 9.33984 23.7121 9.38206 23.3647 9.38206C22.9887 9.38206 22.0759 9.33984 21.3081 9.33984C21.0915 9.33984 20.9885 9.36925 20.9885 9.46773C20.9885 9.56621 21.0757 9.59477 21.2359 9.59477C21.4391 9.59477 21.6833 9.60971 21.7999 9.63848C22.2789 9.73632 22.3939 9.96332 22.4233 10.4461C22.4527 10.8995 22.4527 11.2965 22.4527 13.4509" fill="#8D7249"/>
</g>
<defs>
<clipPath id="clip0_1397_25090">
<rect width="27.3251" height="24" fill="white"/>
</clipPath>
</defs>
</svg>
