<svg width="15" height="15" viewBox="0 0 15 15" fill="none" xmlns="http://www.w3.org/2000/svg">
<path fill-rule="evenodd" clip-rule="evenodd" d="M6.11734 2.07033C5.96553 2.1952 5.88961 2.25764 5.80879 2.30979C5.62353 2.42933 5.41639 2.51092 5.19938 2.54984C5.10471 2.56683 5.00661 2.57293 4.81041 2.58514C4.31746 2.61584 4.07097 2.63118 3.86436 2.70013C3.38647 2.8596 3.00636 3.22667 2.83031 3.6987C2.7542 3.90278 2.73026 4.14858 2.68238 4.64016C2.66333 4.83581 2.6538 4.93364 2.63353 5.02766C2.58705 5.24318 2.49828 5.44735 2.37235 5.62832C2.31742 5.70728 2.25237 5.78096 2.12227 5.92833C1.7954 6.29861 1.63196 6.48372 1.53462 6.67859C1.30946 7.1293 1.30024 7.65758 1.50953 8.11587C1.60002 8.31402 1.75689 8.50472 2.07064 8.88619C2.1955 9.03799 2.25795 9.11392 2.3101 9.19471C2.42964 9.37997 2.51123 9.58712 2.55015 9.80415C2.56714 9.89883 2.57324 9.99694 2.58545 10.1931C2.61615 10.6861 2.63149 10.9326 2.70044 11.1392C2.85991 11.6171 3.22698 11.9972 3.69901 12.1732C3.90309 12.2493 4.14889 12.2733 4.64047 12.3212C4.83612 12.3402 4.93395 12.3498 5.02797 12.37C5.24349 12.4165 5.44766 12.5053 5.62863 12.6312C5.70758 12.6861 5.78127 12.7512 5.92864 12.8812C6.29892 13.2081 6.48403 13.3716 6.6789 13.4689C7.12961 13.6941 7.65789 13.7033 8.11618 13.494C8.31433 13.4035 8.50503 13.2467 8.8865 12.9329C9.0383 12.808 9.11423 12.7456 9.19502 12.6935C9.38028 12.5739 9.58743 12.4923 9.80446 12.4534C9.89913 12.4364 9.99725 12.4303 10.1934 12.4181C10.6864 12.3874 10.9329 12.372 11.1395 12.3031C11.6174 12.1436 11.9975 11.7766 12.1735 11.3045C12.2496 11.1004 12.2736 10.8546 12.3215 10.363C12.3405 10.1674 12.3501 10.0696 12.3703 9.97556C12.4168 9.76002 12.5056 9.55585 12.6315 9.37487C12.6864 9.29595 12.7515 9.22224 12.8815 9.07489C13.2085 8.70461 13.3719 8.5195 13.4692 8.32463C13.6944 7.87392 13.7036 7.34564 13.4943 6.88735C13.4038 6.6892 13.247 6.4985 12.9332 6.11703C12.8083 5.96521 12.7459 5.8893 12.6938 5.80848C12.5742 5.62323 12.4926 5.41609 12.4537 5.19907C12.4367 5.1044 12.4306 5.0063 12.4184 4.8101C12.3877 4.31715 12.3723 4.07066 12.3034 3.86405C12.1439 3.38617 11.7769 3.00605 11.3048 2.83C11.1007 2.75389 10.855 2.72995 10.3634 2.68207C10.1677 2.66302 10.0699 2.65349 9.97587 2.63322C9.76033 2.58674 9.55615 2.49797 9.37518 2.37204C9.29626 2.31711 9.22255 2.25206 9.0752 2.12196C8.70492 1.79509 8.51981 1.63166 8.32494 1.53431C7.87423 1.30915 7.34595 1.29993 6.88766 1.50922C6.68951 1.5997 6.49881 1.75658 6.11734 2.07033ZM9.89622 5.18976C10.088 5.3884 10.0825 5.70494 9.88388 5.89677L5.8146 9.82641C5.61595 10.0183 5.29941 10.0128 5.10758 9.81407C4.91576 9.61545 4.92128 9.29891 5.11992 9.1071L9.18919 5.17741C9.38787 4.98559 9.70441 4.99111 9.89622 5.18976ZM9.80585 9.20911C9.79942 9.57725 9.4958 9.87045 9.12766 9.86403C8.75946 9.8576 8.46626 9.55397 8.47268 9.18584C8.47911 8.8177 8.78273 8.52444 9.15093 8.53086C9.51907 8.53729 9.81227 8.84097 9.80585 9.20911ZM5.85291 6.47297C6.22105 6.4794 6.52472 6.18617 6.53114 5.81803C6.53757 5.44988 6.24432 5.14623 5.87618 5.13981C5.50804 5.13338 5.20439 5.42661 5.19796 5.79475C5.19154 6.1629 5.48477 6.46655 5.85291 6.47297Z" fill="#2F8C34"/>
</svg>
