<svg width="111" height="26" viewBox="0 0 111 26" fill="none" xmlns="http://www.w3.org/2000/svg">
<rect x="0.414106" width="34.7608" height="23.7005" rx="11.849" transform="rotate(1 0.414106 0)" stroke="#FF8027" stroke-width="0.394967"/>
<path d="M16.2749 17.0369L15.0428 14.6092L12.6476 13.2808L13.3193 12.6358L15.4173 13.0303L17.309 11.2035L12.7699 9.17179L13.6307 8.34531L19.1766 9.39643L21.112 7.51611C21.2856 7.34799 21.4964 7.2661 21.7443 7.27043C21.9922 7.27475 22.2 7.36395 22.3677 7.53803C22.5363 7.71211 22.6184 7.9225 22.6141 8.16918C22.6097 8.41586 22.5206 8.62326 22.3465 8.79136L20.396 10.6629L21.2536 16.239L20.389 17.074L18.5248 12.4669L16.6331 14.2937L16.946 16.3889L16.2749 17.0369Z" fill="#FF8027"/>
<rect x="38.3283" y="0.661813" width="34.7608" height="23.7005" rx="11.849" transform="rotate(1 38.3283 0.661813)" stroke="#FF8027" stroke-width="0.394967"/>
<path d="M51.1415 13.8986L61.4593 14.0787L61.3992 17.5179L60.2528 17.4979L60.2728 16.3515L51.1015 16.1914L51.0815 17.3378L49.935 17.3178L50.0951 8.14647L51.2416 8.16648L51.1415 13.8986ZM55.7872 10.5394L60.3729 10.6194C60.6769 10.6247 60.9664 10.7506 61.1777 10.9693C61.3889 11.1881 61.5046 11.4818 61.4993 11.7858L61.4693 13.5055L55.7372 13.4054L55.7872 10.5394ZM53.4443 13.3654C52.9883 13.3574 52.554 13.1686 52.2372 12.8405C51.9203 12.5124 51.7468 12.0718 51.7547 11.6157C51.7627 11.1597 51.9515 10.7254 52.2796 10.4086C52.6077 10.0917 53.0483 9.91817 53.5044 9.92613C53.9604 9.93409 54.3947 10.1229 54.7115 10.451C55.0284 10.7791 55.2019 11.2197 55.194 11.6758C55.186 12.1318 54.9972 12.5661 54.6691 12.8829C54.341 13.1998 53.9004 13.3733 53.4443 13.3654Z" fill="#FF8027"/>
<rect x="76.2424" y="1.32362" width="34.7608" height="23.7005" rx="11.849" transform="rotate(1 76.2424 1.32362)" stroke="#FF8027" stroke-width="0.394967"/>
<path d="M96.9567 8.71824C95.2737 7.70701 93.0895 8.25156 92.0783 9.93454L91.9427 10.1603C91.8303 10.3473 91.8908 10.5899 92.0778 10.7023L94.4416 12.1226L92.919 14.6824C91.9268 14.791 91.0425 15.2909 90.3766 16.0114C90.7602 16.0805 91.0815 16.3591 91.1976 16.7433C91.3148 17.1312 91.5703 17.2532 91.7777 17.2591C91.9895 17.2652 92.2334 17.1548 92.3545 16.8117C92.5054 16.3841 92.9129 16.101 93.3662 16.109C93.8196 16.1169 94.2169 16.414 94.3528 16.8466C94.4618 17.1937 94.7017 17.3125 94.9137 17.3139C95.1211 17.3152 95.3807 17.2022 95.5114 16.8186C95.6405 16.4396 95.9707 16.1716 96.3574 16.1158C95.7103 15.3645 94.8322 14.8307 93.8311 14.6944L95.1188 12.5295L97.4953 13.9574C97.6822 14.0698 97.9249 14.0093 98.0373 13.8223L98.1729 13.5965C99.1842 11.9136 98.6396 9.72948 96.9567 8.71824ZM90.5674 16.9337C90.5161 16.764 90.358 16.6492 90.1807 16.6531C90.0034 16.6569 89.8504 16.7785 89.8065 16.9503C89.6873 17.4173 89.4745 17.6627 89.2431 17.8012C88.9988 17.9474 88.6863 18.0026 88.3291 17.9963C88.1109 17.9925 87.931 18.1663 87.9272 18.3844C87.9234 18.6026 88.0971 18.7824 88.3153 18.7862C88.7479 18.7938 89.2276 18.7311 89.6488 18.4791C89.8684 18.3477 90.0603 18.1718 90.2175 17.9472C91.0173 18.944 92.5224 18.9653 93.3334 17.9863C94.1234 19.0107 95.6679 19.025 96.4923 18.004C96.9284 18.5958 97.6189 18.9486 98.3206 18.9609C98.5388 18.9647 98.7187 18.791 98.7225 18.5728C98.7263 18.3547 98.5525 18.1748 98.3344 18.171C97.7114 18.1601 97.0861 17.7293 96.8877 17.0479C96.8395 16.8824 96.6896 16.7673 96.5173 16.7634C96.3451 16.7595 96.1901 16.8677 96.1346 17.0309C95.6993 18.3084 94.1064 18.2592 93.7247 17.0438C93.6737 16.8816 93.5247 16.7701 93.3547 16.7672C93.1847 16.7642 93.0319 16.8703 92.9753 17.0307C92.5514 18.2321 90.9578 18.2256 90.5674 16.9337Z" fill="#FF8027"/>
</svg>
