<svg width="21" height="21" viewBox="0 0 21 21" fill="none" xmlns="http://www.w3.org/2000/svg">
<path d="M11.5397 7.39429V3H7.14546C6.33649 3 5.68069 3.6558 5.68069 4.46476V9.9563C6.24433 9.72121 6.86283 9.59143 7.51165 9.59143C10.1408 9.59143 12.2721 11.7227 12.2721 14.3519C12.2721 15.631 11.7677 16.7923 10.9468 17.6476H15.934C16.743 17.6476 17.3988 16.9918 17.3988 16.1829V8.85905H13.0045C12.1955 8.85905 11.5397 8.20325 11.5397 7.39429ZM12.6383 7.39429V3.36619L17.0326 7.76048H13.0045C12.8023 7.76048 12.6383 7.59653 12.6383 7.39429ZM6.41826 13.9857C6.44756 12.9498 6.59977 12.0311 6.82333 11.3605C6.94876 10.9842 7.09004 10.7061 7.22913 10.5296C7.37148 10.349 7.46972 10.3238 7.51168 10.3238C7.55363 10.3238 7.65187 10.349 7.79421 10.5296C7.93331 10.7061 8.07459 10.9842 8.20002 11.3605C8.42358 12.0311 8.57579 12.9498 8.60509 13.9857H6.41826ZM6.12853 11.1288C6.20718 10.8929 6.29684 10.674 6.39791 10.4797C4.82799 10.9305 3.65099 12.3102 3.5 13.9857H5.6856C5.71501 12.887 5.87579 11.8871 6.12853 11.1288ZM8.89482 11.1288C8.81617 10.8929 8.72651 10.674 8.62543 10.4797C10.1954 10.9305 11.3724 12.3102 11.5233 13.9857H9.33775C9.30834 12.887 9.14756 11.8871 8.89482 11.1288ZM9.33775 14.7181H11.5233C11.3724 16.3936 10.1954 17.7733 8.62543 18.2241C8.72651 18.0298 8.81617 17.8109 8.89482 17.575C9.14756 16.8167 9.30834 15.8168 9.33775 14.7181ZM7.79421 18.1742C7.65187 18.3548 7.55363 18.38 7.51168 18.38C7.46972 18.38 7.37148 18.3548 7.22913 18.1742C7.09004 17.9977 6.94876 17.7196 6.82333 17.3433C6.59977 16.6727 6.44756 15.754 6.41826 14.7181H8.60509C8.57579 15.754 8.42358 16.6727 8.20002 17.3433C8.07459 17.7196 7.93331 17.9977 7.79421 18.1742ZM3.5 14.7181C3.65099 16.3936 4.82799 17.7733 6.39791 18.2241C6.29684 18.0298 6.20718 17.8109 6.12853 17.575C5.87579 16.8167 5.71501 15.8168 5.6856 14.7181H3.5Z" fill="#FF8027"/>
</svg>
