<svg width="21" height="21" viewBox="0 0 21 21" fill="none" xmlns="http://www.w3.org/2000/svg">
<path d="M3.9375 8.75C3.9375 6.09213 6.09213 3.9375 8.75 3.9375C11.4079 3.9375 13.5625 6.09213 13.5625 8.75C13.5625 11.4079 11.4079 13.5625 8.75 13.5625C6.09213 13.5625 3.9375 11.4079 3.9375 8.75ZM8.75 2.625C5.36726 2.625 2.625 5.36726 2.625 8.75C2.625 12.1328 5.36726 14.875 8.75 14.875C10.205 14.875 11.5414 14.3677 12.5922 13.5203L17.2547 18.1828C17.511 18.4391 17.9265 18.4391 18.1828 18.1828C18.4391 17.9265 18.4391 17.511 18.1828 17.2547L13.5203 12.5922C14.3677 11.5414 14.875 10.205 14.875 8.75C14.875 5.36726 12.1328 2.625 8.75 2.625Z" fill="#0C1C25"/>
</svg>
