<svg width="33" height="25" viewBox="0 0 33 25" fill="none" xmlns="http://www.w3.org/2000/svg">
<g clip-path="url(#clip0_1397_25110)">
<path d="M6.43287 21.9043H6.94202L7.80756 23.282L8.66461 21.9043H9.17376L9.30953 24.8226H8.78341L8.68159 22.801L7.92636 23.9912H7.6633L6.89959 22.8255L6.80624 24.8226H6.2971L6.43287 21.9043Z" fill="black"/>
<path d="M12.1592 23.6243L11.7774 22.4913L11.387 23.6243H12.1592ZM11.5058 21.9043H12.0659L13.1605 24.8226H12.5496L12.295 24.0808H11.2173L10.9627 24.8226H10.3942L11.5058 21.9043Z" fill="black"/>
<path d="M15.4196 23.2168C15.5554 23.2168 15.6657 23.176 15.7421 23.0945C15.8184 23.013 15.8609 22.9151 15.8609 22.7929C15.8609 22.6706 15.8184 22.5646 15.7421 22.4831C15.6572 22.4016 15.5554 22.369 15.4281 22.369H14.8511V23.2168H15.4196ZM14.3165 21.9043H15.4111C15.5893 21.9043 15.7505 21.9288 15.8778 21.9859C16.0051 22.0429 16.1069 22.1081 16.1833 22.1978C16.2597 22.2875 16.3191 22.3771 16.353 22.4831C16.387 22.5891 16.4039 22.6869 16.4039 22.7766C16.4039 22.9559 16.3615 23.1271 16.2851 23.2657C16.2088 23.4042 16.0815 23.5184 15.9203 23.608L16.5906 24.8308H15.9712L15.3857 23.6814H14.8341V24.8308H14.308V21.9043H14.3165Z" fill="black"/>
<path d="M18.9218 23.2168C19.0576 23.2168 19.1679 23.176 19.2443 23.0945C19.3207 23.013 19.3631 22.9151 19.3631 22.7929C19.3631 22.6706 19.3207 22.5646 19.2443 22.4831C19.1594 22.4016 19.0576 22.369 18.9303 22.369H18.3533V23.2168H18.9218ZM17.8272 21.9043H18.9218C19.1 21.9043 19.2613 21.9288 19.3885 21.9859C19.5158 22.0429 19.6177 22.1081 19.694 22.1978C19.7704 22.2875 19.8298 22.3771 19.8637 22.4831C19.8977 22.5891 19.9147 22.6869 19.9147 22.7766C19.9147 22.9559 19.8722 23.1271 19.7959 23.2657C19.7195 23.4042 19.5922 23.5184 19.431 23.608L20.1013 24.8308H19.4819L18.8964 23.6814H18.3533V24.8308H17.8272V21.9043Z" fill="black"/>
<path d="M22.013 21.9043H21.4699V24.8226H22.013V21.9043Z" fill="black"/>
<path d="M24.8376 24.3824C24.9819 24.3824 25.1092 24.358 25.228 24.3009C25.3468 24.2439 25.4401 24.1705 25.525 24.0727C25.6098 23.9749 25.6692 23.8689 25.7117 23.7385C25.7541 23.6162 25.7795 23.4858 25.7795 23.3472C25.7795 23.2086 25.7541 23.0782 25.7117 22.9477C25.6692 22.8255 25.6098 22.7114 25.525 22.6217C25.4401 22.5239 25.3468 22.4505 25.228 22.4016C25.1092 22.3445 24.9819 22.3201 24.8376 22.3201C24.6934 22.3201 24.5661 22.3445 24.4473 22.4016C24.337 22.4587 24.2351 22.532 24.1588 22.6217C24.0739 22.7114 24.0145 22.8255 23.9721 22.9477C23.9297 23.07 23.9042 23.2004 23.9042 23.3472C23.9042 23.4858 23.9297 23.6162 23.9721 23.7385C24.0145 23.8607 24.0739 23.9749 24.1588 24.0727C24.2436 24.1705 24.337 24.2439 24.4473 24.3009C24.5661 24.3498 24.6934 24.3824 24.8376 24.3824ZM24.8376 24.896C24.6255 24.896 24.4303 24.8552 24.2436 24.7737C24.0654 24.6922 23.9042 24.5862 23.7684 24.4476C23.6327 24.3091 23.5223 24.146 23.446 23.9586C23.3696 23.7711 23.3272 23.5754 23.3272 23.3553C23.3272 23.1434 23.3696 22.9396 23.446 22.7521C23.5223 22.5646 23.6327 22.4016 23.7684 22.263C23.9042 22.1244 24.0569 22.0185 24.2436 21.9369C24.4303 21.8554 24.6255 21.8147 24.8376 21.8147C25.0498 21.8147 25.2449 21.8554 25.4316 21.9369C25.6098 22.0185 25.7711 22.1244 25.9068 22.263C26.0426 22.4016 26.1529 22.5646 26.2293 22.7521C26.3057 22.9396 26.3481 23.1352 26.3481 23.3553C26.3481 23.5673 26.3057 23.7711 26.2293 23.9586C26.1529 24.146 26.0426 24.3091 25.9068 24.4476C25.7711 24.5862 25.6098 24.7003 25.4316 24.7737C25.2449 24.8552 25.0498 24.896 24.8376 24.896Z" fill="black"/>
<path d="M28.0375 22.3853H27.0616V21.9043H29.5649V22.3853H28.589V24.8226H28.0375V22.3853Z" fill="black"/>
<path d="M31.4735 22.3853H30.4891V21.9043H33.0009V22.3853H32.0166V24.8226H31.4735V22.3853Z" fill="black"/>
<path d="M21.0785 18.9851H25.9578L17.7945 0.30161L13.6959 2.20909L16.5471 8.71409L15.2234 11.7383L10.115 0L5.97394 1.81781L9.30034 9.31731L9.28337 9.34992C7.22982 14.086 4.71805 15.3821 4.47197 15.4718C3.88645 15.7 3.25851 15.8305 2.59663 15.8305C2.39297 15.8305 2.1978 15.8223 2.00263 15.7979L0 19.9226C0.661885 20.2894 1.40863 20.5013 2.1978 20.5013C3.19911 20.5013 4.11557 20.1671 4.87928 19.6128L4.8708 19.6291C4.8708 19.6291 6.76311 18.708 8.7912 13.6621C8.7912 13.654 9.53794 12.0481 9.93677 11.021L9.97919 10.9069L13.5432 18.9933H18.414L15.9022 13.3035L17.2345 10.2792L21.0785 18.9851Z" fill="#A11D2B"/>
</g>
<defs>
<clipPath id="clip0_1397_25110">
<rect width="32.3447" height="24.4" fill="white" transform="scale(1.02029)"/>
</clipPath>
</defs>
</svg>
