<svg width="20" height="20" viewBox="0 0 20 20" fill="none" xmlns="http://www.w3.org/2000/svg">
<path fill-rule="evenodd" clip-rule="evenodd" d="M10.0013 18.3346C14.6036 18.3346 18.3346 14.6036 18.3346 10.0013C18.3346 5.39893 14.6036 1.66797 10.0013 1.66797C5.39893 1.66797 1.66797 5.39893 1.66797 10.0013C1.66797 14.6036 5.39893 18.3346 10.0013 18.3346ZM9.05238 7.80409L8.94313 8.00004C8.82313 8.21528 8.76313 8.32289 8.66963 8.39388C8.57605 8.46488 8.45955 8.4913 8.22659 8.54397L8.01448 8.59197C7.19459 8.77747 6.78464 8.87022 6.68711 9.18388C6.58958 9.49755 6.86905 9.8243 7.428 10.478L7.57261 10.6471C7.73144 10.8328 7.81086 10.9256 7.84659 11.0406C7.88232 11.1555 7.87031 11.2793 7.84629 11.5271L7.82443 11.7528C7.73993 12.6248 7.69768 13.0609 7.95302 13.2547C8.20836 13.4486 8.59222 13.2718 9.35988 12.9184L9.55847 12.8269C9.77663 12.7265 9.88572 12.6762 10.0013 12.6762C10.1169 12.6762 10.226 12.7265 10.4441 12.8269L10.6427 12.9184C11.4104 13.2718 11.7942 13.4486 12.0496 13.2547C12.305 13.0609 12.2626 12.6248 12.1781 11.7528L12.1563 11.5271C12.1323 11.2793 12.1203 11.1555 12.1561 11.0406C12.1917 10.9256 12.2711 10.8328 12.43 10.6471L12.5746 10.478C13.1336 9.8243 13.4131 9.49755 13.3155 9.18388C13.218 8.87022 12.8081 8.77747 11.9881 8.59197L11.776 8.54397C11.5431 8.4913 11.4266 8.46488 11.333 8.39388C11.2395 8.3229 11.1795 8.21528 11.0595 8.00005L10.9502 7.80409C10.5281 7.04668 10.3169 6.66797 10.0013 6.66797C9.68572 6.66797 9.47455 7.04668 9.05238 7.80409Z" fill="white"/>
</svg>
