<svg width="14" height="14" viewBox="0 0 14 14" fill="none" xmlns="http://www.w3.org/2000/svg">
<path d="M8.30509 3.94618V0.5H4.85892C4.22449 0.5 3.71019 1.0143 3.71019 1.64873V5.95542C4.15221 5.77105 4.63727 5.66927 5.1461 5.66927C7.208 5.66927 8.87946 7.34072 8.87946 9.40263C8.87946 10.4058 8.48384 11.3165 7.84009 11.9873H11.7513C12.3857 11.9873 12.9 11.473 12.9 10.8385V5.09491H9.45382C8.81938 5.09491 8.30509 4.5806 8.30509 3.94618ZM9.16664 3.94618V0.787182L12.6128 4.23336H9.45382C9.29524 4.23336 9.16664 4.10478 9.16664 3.94618ZM4.28862 9.11545C4.31159 8.30301 4.43096 7.58259 4.60629 7.05664C4.70466 6.76153 4.81545 6.54345 4.92454 6.40503C5.03618 6.26339 5.11322 6.24363 5.14612 6.24363C5.17902 6.24363 5.25606 6.26339 5.3677 6.40503C5.47679 6.54345 5.58758 6.76153 5.68595 7.05664C5.86128 7.58259 5.98064 8.30301 6.00362 9.11545H4.28862ZM4.0614 6.87497C4.12308 6.68997 4.1934 6.51823 4.27266 6.36591C3.04146 6.71943 2.11841 7.80142 2 9.11545H3.71404C3.7371 8.25379 3.86319 7.46961 4.0614 6.87497ZM6.23084 6.87497C6.16916 6.68997 6.09885 6.51823 6.01957 6.36591C7.25079 6.71943 8.17385 7.80142 8.29223 9.11545H6.5782C6.55514 8.25379 6.42905 7.46961 6.23084 6.87497ZM6.5782 9.68981H8.29223C8.17385 11.0038 7.25079 12.0858 6.01957 12.4393C6.09885 12.287 6.16916 12.1153 6.23084 11.9303C6.42905 11.3356 6.55514 10.5515 6.5782 9.68981ZM5.3677 12.4002C5.25606 12.5419 5.17902 12.5616 5.14612 12.5616C5.11322 12.5616 5.03618 12.5419 4.92454 12.4002C4.81545 12.2618 4.70466 12.0437 4.60629 11.7486C4.43096 11.2227 4.31159 10.5022 4.28862 9.68981H6.00362C5.98064 10.5022 5.86128 11.2227 5.68595 11.7486C5.58758 12.0437 5.47679 12.2618 5.3677 12.4002ZM2 9.68981C2.11841 11.0038 3.04146 12.0858 4.27266 12.4393C4.1934 12.287 4.12308 12.1153 4.0614 11.9303C3.86319 11.3356 3.7371 10.5515 3.71404 9.68981H2Z" fill="white"/>
</svg>
