<svg width="8" height="8" viewBox="0 0 8 8" fill="none" xmlns="http://www.w3.org/2000/svg">
<g clip-path="url(#clip0_1397_25081)">
<path fill-rule="evenodd" clip-rule="evenodd" d="M3.00595 0.215285C2.8487 0.35007 2.8305 0.586805 2.9653 0.744055L5.7561 4L2.9653 7.25595C2.8305 7.4132 2.8487 7.64995 3.00595 7.78475C3.1632 7.9195 3.39995 7.9013 3.5347 7.74405L6.5347 4.24405C6.6551 4.1036 6.6551 3.8964 6.5347 3.75595L3.5347 0.25596C3.39995 0.0987153 3.1632 0.0805003 3.00595 0.215285Z" fill="white"/>
<path d="M1.125 0.500018C1.125 0.343088 1.22271 0.202758 1.36989 0.148313C1.51707 0.093863 1.6826 0.136823 1.78472 0.255973L4.7847 3.75599C4.9051 3.89639 4.9051 4.10364 4.7847 4.24404L1.78472 7.74404C1.6826 7.86319 1.51707 7.90619 1.36989 7.85174C1.22271 7.79729 1.125 7.65694 1.125 7.49999V0.500018Z" fill="white"/>
</g>
<defs>
<clipPath id="clip0_1397_25081">
<rect width="8" height="8" fill="white"/>
</clipPath>
</defs>
</svg>
