<svg width="27" height="27" viewBox="0 0 27 27" fill="none" xmlns="http://www.w3.org/2000/svg">
<path d="M23.1239 22.9243L22.0749 21.8686L17.5292 26.3728C19.6501 25.7035 21.5733 24.5186 23.1239 22.9243ZM19.6701 19.4436L12.1206 26.9301C12.5426 26.9716 12.97 26.9984 13.4028 26.9998C13.7819 27.0025 14.153 26.9837 14.5214 26.9556L20.8745 20.6561M17.2666 17.0187L8.25682 25.9575C8.8396 26.1986 9.44115 26.4036 10.0655 26.567L18.4697 18.2312M14.8658 14.5938L5.20623 24.1783C5.66174 24.532 6.14673 24.8549 6.64645 25.1509L16.0675 15.8049M12.4596 12.1729L2.78666 21.7641C3.13767 22.2156 3.51414 22.6443 3.9174 23.0475L13.664 13.3853M10.0614 9.74795L1.0048 18.7255C1.24328 19.2789 1.51123 19.8121 1.81669 20.3279L11.2592 10.9591M7.65527 7.319L0.0294743 14.8845C0.1045 15.5812 0.226416 16.2604 0.399242 16.9209L8.85702 8.53414M5.2491 4.89809L0.546614 9.56976C0.251963 10.5262 0.0685475 11.5134 0 12.5118L6.45353 6.11323M22.0762 21.8672L26.2978 17.6819C26.6113 16.7213 26.8176 15.7125 26.9073 14.6728L20.8745 20.6561M19.6701 19.4436L26.906 12.2734C26.8444 11.5788 26.7298 10.8899 26.563 10.2128L18.4737 18.2339M17.2719 17.0214L25.9655 8.40151C25.7351 7.8415 25.4698 7.2989 25.1724 6.7831L16.0688 15.8089M14.8658 14.5938L24.2118 5.3335C23.8654 4.87822 23.4914 4.44467 23.0918 4.0353L13.664 13.3853M12.4623 12.1729L21.815 2.90054C21.3633 2.5387 20.887 2.20877 20.3895 1.91315L11.2592 10.9618M10.0614 9.74795L18.7912 1.09189C18.2091 0.840274 17.6096 0.631174 16.9973 0.466229L8.85702 8.53682M7.65527 7.32436L14.9622 0.0803844C14.4835 0.0273222 14.0023 0.000487329 13.5207 0C13.2072 0 12.899 0.00937817 12.5895 0.0267948L6.45219 6.11189M9.64077 0.550633C7.56923 1.16058 5.67473 2.25969 4.11702 3.75529L5.25312 4.89809" fill="black"/>
</svg>
