<svg width="210" height="67" viewBox="0 0 210 67" fill="none" xmlns="http://www.w3.org/2000/svg">
<rect y="0.000488704" width="66.6633" height="66.6633" rx="33.3028" fill="black"/>
<path d="M30.7374 41.261V38.4953C30.7374 37.7893 31.3139 37.217 32.0251 37.217H34.6248C34.9663 37.217 35.2938 37.3516 35.5353 37.5914C35.7768 37.8311 35.9125 38.1563 35.9125 38.4953V41.261C35.9103 41.5545 36.0263 41.8368 36.2346 42.0451C36.4429 42.2534 36.7263 42.3705 37.022 42.3705H38.7956C39.624 42.3726 40.4191 42.0475 41.0056 41.4667C41.5921 40.886 41.9217 40.0975 41.9217 39.2752V31.3961C41.9217 30.7318 41.6251 30.1017 41.1119 29.6756L35.0783 24.8919C34.0288 24.0531 32.525 24.0802 31.5068 24.9562L25.6109 29.6756C25.0734 30.0892 24.7521 30.7211 24.7362 31.3961V39.2671C24.7362 40.9811 26.1359 42.3705 27.8624 42.3705H29.5955C30.2096 42.3705 30.7087 41.8787 30.7131 41.269L30.7374 41.261Z" fill="white"/>
<path d="M71.6675 33.332C71.6675 14.9233 86.5907 0 104.999 0C123.408 0 138.332 14.9233 138.332 33.332C138.332 51.7408 123.408 66.664 104.999 66.664C86.5907 66.664 71.6675 51.7408 71.6675 33.332Z" fill="black" fill-opacity="0.1"/>
<path fill-rule="evenodd" clip-rule="evenodd" d="M105.047 23.6076H104.953C104.14 23.6076 103.462 23.6075 102.924 23.6799C102.356 23.7562 101.844 23.9242 101.432 24.3361C101.02 24.7481 100.852 25.2608 100.775 25.8287C100.703 26.3667 100.703 27.0444 100.703 27.8571V27.9274C100.547 27.9325 100.396 27.9387 100.251 27.9463V35.3665H103.222C103.407 35.3664 103.608 35.3663 103.777 35.3891C103.976 35.4158 104.229 35.4844 104.442 35.6977C104.656 35.9109 104.724 36.1644 104.751 36.3628C104.774 36.5322 104.774 36.7328 104.773 36.9183V37.8852C104.774 38.0707 104.774 38.2713 104.751 38.4407C104.724 38.639 104.656 38.8925 104.442 39.1058C104.229 39.319 103.976 39.3876 103.777 39.4143C103.608 39.4371 103.407 39.437 103.222 39.4369H100.251V42.3345C101.06 42.3766 102.026 42.3766 103.191 42.3766H106.809C107.973 42.3766 108.939 42.3766 109.748 42.3345V27.9463C109.603 27.9387 109.452 27.9325 109.296 27.9274V27.8571C109.296 27.0444 109.296 26.3667 109.224 25.8287C109.148 25.2608 108.98 24.7481 108.568 24.3361C108.156 23.9242 107.643 23.7562 107.075 23.6799C106.537 23.6075 105.859 23.6076 105.047 23.6076ZM107.939 27.9058V27.9041C107.939 27.0321 107.938 26.4464 107.879 26.0095C107.823 25.5921 107.726 25.4134 107.608 25.2956C107.49 25.1777 107.312 25.0807 106.894 25.0246C106.457 24.9658 105.872 24.9644 105 24.9644C104.128 24.9644 103.542 24.9658 103.105 25.0246C102.688 25.0807 102.509 25.1777 102.391 25.2956C102.273 25.4134 102.176 25.5921 102.12 26.0095C102.061 26.4464 102.06 27.0321 102.06 27.9041V27.9058C102.414 27.9041 102.791 27.9041 103.191 27.9041H106.809C107.208 27.9041 107.585 27.9041 107.939 27.9058Z" fill="#0E0E0E"/>
<path d="M112.984 41.3175C112.515 41.7869 111.919 42.0483 111.104 42.194V28.088C111.919 28.2337 112.515 28.4952 112.984 28.9645C114.044 30.0242 114.044 31.7298 114.044 35.141C114.044 38.5522 114.044 40.2579 112.984 41.3175Z" fill="#0E0E0E"/>
<path d="M97.0099 28.9645C97.4792 28.4952 98.0752 28.2337 98.8899 28.088V35.4048C98.7089 35.4401 98.4982 35.5168 98.3166 35.6983C98.1033 35.9116 98.0347 36.165 98.008 36.3634C97.9853 36.5328 97.9853 36.7334 97.9854 36.919V37.8858C97.9853 38.0713 97.9853 38.272 98.008 38.4413C98.0347 38.6397 98.1033 38.8931 98.3166 39.1064C98.4982 39.288 98.7089 39.3647 98.8899 39.3999V42.194C98.0752 42.0483 97.4792 41.7869 97.0099 41.3175C95.9502 40.2579 95.9502 38.5522 95.9502 35.141C95.9502 31.7298 95.9502 30.0242 97.0099 28.9645Z" fill="#0E0E0E"/>
<path d="M99.3448 36.7255C99.3438 36.7883 99.3438 36.8609 99.3438 36.9505V37.8551C99.3438 37.9447 99.3438 38.0173 99.3448 38.0802C99.4076 38.0812 99.4803 38.0812 99.5699 38.0812H103.188C103.278 38.0812 103.35 38.0812 103.413 38.0802C103.414 38.0173 103.414 37.9447 103.414 37.8551V36.9505C103.414 36.8609 103.414 36.7883 103.413 36.7255C103.35 36.7245 103.278 36.7244 103.188 36.7244H99.5699C99.4803 36.7244 99.4076 36.7245 99.3448 36.7255Z" fill="#0E0E0E"/>
<rect x="143.335" width="66.664" height="66.664" rx="33.3032" fill="#E5E5E5"/>
<path d="M180.752 37.4045C180.91 37.281 181.054 37.1375 181.341 36.8503L184.921 33.2707C185.007 33.1842 184.968 33.0352 184.852 32.995C184.429 32.8485 183.88 32.5732 183.366 32.0591C182.851 31.5449 182.576 30.9953 182.43 30.5727C182.39 30.4571 182.24 30.4175 182.154 30.504L178.574 34.0836C178.287 34.3708 178.144 34.5143 178.02 34.6726C177.875 34.8594 177.75 35.0614 177.648 35.2752C177.561 35.4564 177.497 35.6491 177.369 36.0343L177.203 36.5321L176.939 37.3236L176.692 38.0657C176.628 38.2553 176.678 38.4643 176.819 38.6056C176.96 38.7469 177.169 38.7962 177.359 38.7331L178.101 38.4857L178.893 38.2218L179.39 38.0559C179.776 37.9275 179.968 37.8633 180.149 37.7769C180.363 37.6751 180.565 37.5501 180.752 37.4045Z" fill="#0E0E0E"/>
<path d="M186.044 32.1491C186.809 31.385 186.809 30.1464 186.044 29.3824C185.281 28.6183 184.042 28.6183 183.278 29.3824L183.163 29.4974C183.052 29.6085 183.001 29.7636 183.029 29.9182C183.047 30.0154 183.079 30.1576 183.138 30.3272C183.255 30.6665 183.478 31.1118 183.896 31.5305C184.315 31.9492 184.76 32.1714 185.1 32.2891C185.269 32.348 185.411 32.3803 185.509 32.3977C185.663 32.4255 185.818 32.3752 185.929 32.2641L186.044 32.1491Z" fill="#0E0E0E"/>
<path fill-rule="evenodd" clip-rule="evenodd" d="M169.584 25.3456C168.525 26.4054 168.525 28.111 168.525 31.5222V35.1403C168.525 38.5515 168.525 40.2571 169.584 41.3168C170.644 42.3766 172.35 42.3766 175.761 42.3766H177.57C180.981 42.3766 182.687 42.3766 183.747 41.3168C184.789 40.2741 184.806 38.6061 184.806 35.3032L182.257 37.8524C182.013 38.0966 181.813 38.2966 181.588 38.4727C181.323 38.6789 181.037 38.8558 180.734 39C180.476 39.1231 180.208 39.2125 179.88 39.3215L177.789 40.0185C177.112 40.2442 176.365 40.068 175.861 39.5633C175.356 39.0585 175.18 38.312 175.405 37.6349L175.653 36.8928L176.083 35.6035L176.102 35.544C176.212 35.2165 176.301 34.9482 176.424 34.6897C176.568 34.387 176.745 34.1009 176.951 33.8365C177.127 33.6107 177.327 33.4109 177.572 33.1669L181.195 29.5429L182.201 28.5372L182.316 28.4222C182.963 27.7751 183.812 27.4516 184.66 27.4518C184.523 26.5196 184.258 25.8573 183.747 25.3456C182.687 24.2859 180.981 24.2859 177.57 24.2859H175.761C172.35 24.2859 170.644 24.2859 169.584 25.3456ZM172.369 30.6176C172.369 30.243 172.673 29.9392 173.047 29.9392H178.927C179.301 29.9392 179.605 30.243 179.605 30.6176C179.605 30.9923 179.301 31.296 178.927 31.296H173.047C172.673 31.296 172.369 30.9923 172.369 30.6176ZM172.369 34.2358C172.369 33.8611 172.673 33.5574 173.047 33.5574H175.309C175.683 33.5574 175.987 33.8611 175.987 34.2358C175.987 34.6104 175.683 34.9142 175.309 34.9142H173.047C172.673 34.9142 172.369 34.6104 172.369 34.2358ZM172.369 37.8539C172.369 37.4792 172.673 37.1755 173.047 37.1755H174.404C174.779 37.1755 175.083 37.4792 175.083 37.8539C175.083 38.2286 174.779 38.5323 174.404 38.5323H173.047C172.673 38.5323 172.369 38.2286 172.369 37.8539Z" fill="#0E0E0E"/>
</svg>
