<svg width="21" height="21" viewBox="0 0 21 21" fill="none" xmlns="http://www.w3.org/2000/svg">
<path d="M3.5 4.59375C3.5 3.02319 4.77319 1.75 6.34375 1.75H11.1252C11.8793 1.75 12.6027 2.04961 13.136 2.58291L16.6671 6.11401C17.2004 6.64731 17.5 7.37063 17.5 8.12484V16.4062C17.5 17.9768 16.2268 19.25 14.6562 19.25H6.34375C4.77319 19.25 3.5 17.9768 3.5 16.4062V4.59375ZM6.78125 12.25H10.5V9.40625H8.09375C7.36887 9.40625 6.78125 9.9939 6.78125 10.7187V12.25ZM6.78125 13.5625V14.6562C6.78125 15.3811 7.36887 15.9687 8.09375 15.9687H10.5V13.5625H6.78125ZM11.8125 15.9687H12.9062C13.6311 15.9687 14.2187 15.3811 14.2187 14.6562V10.7187C14.2187 9.9939 13.6311 9.40625 12.9062 9.40625H11.8125V15.9687Z" fill="#FF8027"/>
</svg>
